<svg xmlns="http://www.w3.org/2000/svg" class="icon icon-tabler icon-tabler-brand-visa" width="24" height="24" viewBox="0 0 24 24" stroke-width="1.5" stroke="#0242A5" fill="none" stroke-linecap="round" stroke-linejoin="round">
  <path stroke="none" d="M0 0h24v24H0z" fill="none"/>
  <path d="M0.8 3m0 2a2 2 0 0 1 2 -2h18.5a2 2 0 0 1 2 2v14a2 2 0 0 1 -2 2h-18.5a2 2 0 0 1 -2 -2z" stroke="none" fill="white" stroke-width="1"/>
  <path d="M3 9h1v6h.5l2.5 -6" />  /*V*/
  <path d="M9 15l1 -6" />  /*I*/
  <path d="M16 9.5a.5 .5 0 0 0 -.5 -.5h-.75c-.721 0 -1.337 .521 -1.455 1.233l-.09 .534a1.059 1.059 0 0 0 1.045 1.233a1.059 1.059 0 0 1 1.045 1.233l-.09 .534a1.476 1.476 0 0 1 -1.455 1.233h-.75a.5 .5 0 0 1 -.5 -.5" />  /*S*/
  <path d="M21 15l-1 -6l-2.5 6" />  /*A*/
  <path d="M18 14h2.7" />


</svg>


