<svg width="21" height="21" viewBox="0 0 32 32" fill="yellow" xmlns="http://www.w3.org/2000/svg">
<path d="M17.7797 4.87897L17.7803 4.87925C21.6757 6.92728 25.1411 9.23335 27.6251 11.3244C28.8682 12.3709 29.8532 13.3533 30.5228 14.2129C31.2098 15.0949 31.5 15.7666 31.5 16.206C31.5 16.3875 31.3848 16.7393 31.0033 17.2799C30.6349 17.8017 30.0632 18.4371 29.2658 19.171C27.6726 20.6373 25.2213 22.458 21.8172 24.5084C17.7621 26.9489 13.7027 28.9133 10.3768 30.1326C8.71263 30.7427 7.24515 31.1615 6.06125 31.363C4.84963 31.5692 4.03193 31.5297 3.59527 31.3302C3.41082 31.2445 3.13842 30.9936 2.82546 30.4571C2.52031 29.934 2.20899 29.1953 1.91747 28.2271C1.33497 26.2925 0.848212 23.498 0.626517 19.8138L0.626445 19.8126C0.338287 15.2011 0.557077 10.7315 1.13587 7.24879C1.42548 5.50614 1.80271 4.02608 2.24371 2.90439C2.69475 1.75717 3.17673 1.07902 3.61572 0.812638L3.61573 0.812648L3.61868 0.810827C3.92253 0.623555 4.42553 0.5 5.14192 0.5C6.43703 0.5 8.2546 0.882804 10.4387 1.63205C12.6137 2.37818 15.1194 3.47616 17.7797 4.87897Z" stroke="black"/>
<path d="M20.2747 9.75785C18.995 8.997 17.1847 8.61658 14.8436 8.61658C12.6116 8.61658 10.6723 8.72595 9.02556 8.94469C8.70812 8.98274 8.46013 9.05406 8.28157 9.15868C8.11293 9.27281 7.99389 9.444 7.92445 9.67225L7.47806 11.8121H13.8615L14.2037 9.84344L18.3552 14.6938L12.567 19.4729L12.939 17.2474H6.33231L4.38306 26.4775V26.4917V26.563C4.38306 26.6867 4.4277 26.7865 4.51697 26.8626C4.60625 26.9292 4.71537 26.9625 4.84433 26.9625H7.79054C7.93933 26.9625 8.08317 26.9197 8.22205 26.8341C8.35101 26.739 8.43037 26.6201 8.46013 26.4775L9.81419 20.9423C9.91339 20.9423 10.0721 20.9518 10.2903 20.9708C10.5086 20.9803 10.7318 20.9898 10.9599 20.9994C11.198 21.0089 11.451 21.0184 11.7188 21.0279C11.9866 21.0374 12.2148 21.0422 12.4033 21.0422C14.0252 21.0422 15.4685 20.8139 16.7631 20.5571C20.736 19.7868 22.1942 15.9492 22.2091 13.0247C22.224 11.5981 21.5693 10.5139 20.2747 9.75785Z" fill="#1D1D1B"/>
</svg>
