<svg version="1.2" xmlns="http://www.w3.org/2000/svg" viewBox="0 0 1110 312" width="1110" height="312"><style>.a{fill:#4a494c}.b{fill:#fc0}.c{fill:#fff}.d{fill:#1d1d1b}</style><path fill-rule="evenodd" class="a" d="m448.3 293.4l-2.8-9.8h-12.7l-2.8 9.8h-9.7q6.4-20.7 12.8-41.4h12.5c4.2 13.8 8.5 27.6 12.7 41.4zm-4.5-16.8q-2.4-8.3-4.6-16.6-2.4 8.3-4.6 16.6z"/><path class="a" d="m722.6 292.4c-3 1-6.9 1.7-10.7 1.7-12.9 0-22.1-8.5-22.1-21.3 0.1-13.7 10.4-21.5 22.9-21.5 3.7 0 7.1 0.6 9.7 1.7l-2.5 6.6c-2.2-0.7-5-1.2-7.4-1.2-8.1 0-12.7 6-12.7 14.3 0 9.2 5.6 14.3 13.2 14.3 2.2 0 4.6-0.4 6.5-1z"/><path fill-rule="evenodd" class="a" d="m739.4 294.1c-9.4 0-16.1-5.9-16.1-16 0-10.1 6.7-16 16.1-16 9.5 0 16.2 5.9 16.2 16 0 10.1-6.7 16-16.2 16zm6-15.9c0-5.3-1.8-9.1-6-9.1-4.1 0-5.9 3.8-5.9 9.1 0 5 1.7 9 5.9 9 4.3 0 6-3.9 6-9z"/><path class="a" d="m797.9 293.4v-20.8c0-2.1-1.2-3.4-3.2-3.4-2.2 0-4.7 1.3-6.2 2.5 0 1.2 0 2.6 0 3.8v17.9h-9.6v-20.7c0-2.2-1.1-3.5-3.2-3.5-2.2 0-4.9 1.5-6.3 2.5v21.7h-9.6v-30.6h9.2v3.5c2.2-1.8 6.1-4.1 10.3-4.1 2.7 0 6.5 1 8.1 4.6 1.9-1.8 6.4-4.7 11.1-4.7 3.8 0 9 1.9 9 10.2v21.1z"/><path fill-rule="evenodd" class="a" d="m813.8 262.8h9.6v2.8c1.6-1.5 3.9-3.5 8-3.5 7.4 0 12.6 6.1 12.6 14.9 0 11.5-8.2 17.1-16.4 17.1-1.3 0-3.2-0.2-4.2-0.6v12.1h-9.6zm9.6 23.8c0.8 0.4 1.9 0.7 3.2 0.7 3.7 0 7.3-3 7.3-9.8 0-6-3-8.4-5.9-8.4-1.7 0-3.3 0.8-4.6 1.6z"/><path fill-rule="evenodd" class="a" d="m864.6 293.4l-0.5-3c-1.7 1.8-4 3.7-7.8 3.7-4.8 0-9.6-3-9.6-9.1 0-6.6 4.3-11 17.1-10.8v-2c0-2.4-2-3.1-4.2-3.1-3.1 0-6.8 1.3-8.5 2.1l-2.7-5.4c2.9-1.8 7.6-3.7 13.5-3.7 7.1 0 11.5 3.1 11.5 10v21.3c0 0-8.8 0-8.8 0zm-0.8-13.1c-0.8-0.1-1.4-0.2-2.2-0.2-3.8 0-5.6 1.7-5.6 4.2 0 2.2 1.6 3.6 4 3.6 1.5 0 2.9-0.5 3.8-1.2z"/><path class="a" d="m898.7 293.4v-20.3c0-2.5-1.1-3.9-3.5-3.9-2.4 0-4.6 1.5-5.9 2.5v21.7h-9.6v-30.6h9.1v3.7c2.1-1.8 5.8-4.4 10.3-4.4 4 0 9.1 2 9.1 10.4v20.9z"/><path class="a" d="m917.5 306.4l5.1-13h-2.9c-3.2-10.2-6.4-20.4-9.7-30.6h9.7l5.8 22.7 6.4-22.7h9.6c-5.1 14.6-10 29.2-15 43.6z"/><path class="a" d="m670.3 279.9h3.3-3.3z"/><path fill-rule="evenodd" class="a" d="m638.9 249.7c1.8 0 3.2 0.2 4.6 0.6v6.8c-0.8-0.3-2-0.4-2.8-0.4-3 0-4 1.9-4 4.5v1.7h6.5v6.4h-6.5v23.9h-9.5v-23.9h-5.1v-6.4h5.1v-1.3c0-7.2 4.1-11.9 11.7-11.9zm-48.7 34.1c0 6.6-6 10.1-12.9 10.1-3.9 0-8-0.9-11.6-2.8l3-6.1c2.2 1.1 4.9 2 7.8 2 2.8 0 4.4-0.8 4.4-2.5 0-4.4-14.2-2.6-14.2-12.7 0-6.4 5.7-9.7 12.7-9.7 3.9 0 7.7 1.2 10.2 2.5l-2.7 6.2c-1.9-0.8-4.5-1.7-7-1.7-2.4 0-3.8 0.9-3.8 2.3 0 4.1 14.1 2.4 14.1 12.4zm29.2-11.7v21.1h-9.5v-1.3c-1.9 1.1-4.4 2-6.7 2-5.8 0-10.2-4.4-10.2-9.6 0-5.3 3.8-11.1 16.9-10.1v-2.1c0-2.3-2-3-4.2-3-3.1 0-6.7 1.3-8.4 2.1l-2.6-5.4c2.8-1.8 7.5-3.7 13.3-3.7 7.1 0 11.4 3.1 11.4 10zm-9.5 8.1c-5.8-1-7.7 1.5-7.7 4 0 2.2 1.6 3.5 3.9 3.5 1.5 0 2.9-0.5 3.8-1.2zm-77.4-8v21.1h-9.5v-1.4c-1.9 1.2-4.4 2.1-6.7 2.1-5.8 0-10.2-4.4-10.2-9.6 0-5.3 3.7-11.1 16.9-10.2v-2c0-2.3-2-3.1-4.2-3.1-3.1 0-6.7 1.4-8.5 2.2l-2.6-5.5c2.9-1.8 7.5-3.6 13.4-3.6 7 0 11.4 3.1 11.4 10zm-9.2 8c-5.8-0.9-7.7 1.5-7.7 4 0 2.2 1.6 3.6 3.9 3.6 1.5 0 2.9-0.5 3.8-1.2zm-17.8-15.3c0 8.4-5.9 13.4-13.8 13.4h-6v15h-9.8v-41.1h15.8c9.4 0 13.8 5.5 13.8 12.7zm-9.4 0.4c0-3.5-2-6-5.5-6h-4.9v11.8h4.9c3.3 0 5.5-2.1 5.5-5.8zm70.2-2.4l-15.4 38.9h-9l4-10-12.9-28.9h9.8l7.5 18.1 6.6-18.1c0 0 9.4 0 9.4 0zm107.3 14.7v2.4h-19.7c0.1 1.5 0.5 2.8 1.1 3.8q0.2 0.2 0.3 0.5 0.1 0.1 0.2 0.2 0.1 0.1 0.2 0.2 0.1 0.2 0.3 0.4h0.1q0.4 0.5 1 0.8 0 0 0 0 0.3 0.2 0.6 0.3 0 0.1 0.1 0.1 0.2 0.1 0.4 0.1 0.1 0.1 0.3 0.2 0.1 0 0.3 0 0.2 0.1 0.4 0.2 0.1 0 0.2 0 0.2 0.1 0.5 0.1 0.1 0 0.1 0 0.3 0 0.6 0.1 0.1 0 0.2 0 0.3 0 0.6 0c2.6 0 5.5-0.7 8.4-2.3l2.6 5.9c-4.2 2.9-9.6 3.4-12.4 3.4-9.9 0-16-6.2-16-15.8 0-9.3 6.5-16 15-16 8.4 0 14.6 6.5 14.6 15.4zm-9.6-2.6c-0.3-4.1-2.4-6.1-5.1-6.1-2.6 0-4.6 2-5 6.1z"/><path fill-rule="evenodd" d="m351.5 86.2q0 3.4-0.4 5.3l-0.4 1.3q-3.1 13.6-10.1 21.2-7 7.7-16.7 10.7-9.8 2.9-22.1 2.9-1.5 0-3.5-0.1-2-0.1-3.8-0.1-1.8-0.1-3.4-0.2-1.7-0.1-2.5-0.1l-6.8 38.8q-0.2 1.3-1.2 2.1-1 0.8-2.2 0.8h-14.9q-1 0-1.7-0.6-0.6-0.7-0.6-1.8v-0.5l17.9-102.4q0.5-2.1 1.8-3.1 1.4-1 3.8-1.3 12.5-2 29.5-2 17.8 0 27.5 6.9 9.8 7 9.8 19.9c0 0 0 2.3 0 2.3zm-20.4 0.2q0-6.8-4.7-9.5-4.7-2.7-15.2-2.7-2.9 0-7.5 0.2-4.5 0.3-6 0.4l-6.2 35.4q7.2 0.4 13.3 0.4 11.3 0 17.4-4.6 6.1-4.6 8-13.2l0.3-1.3q0.6-2.6 0.6-5.1z"/><path fill-rule="evenodd" d="m385.7 100.3q-6-0.1-11.6 1-5.6 1.1-11.9 2.8-1.6 0.4-2.4 0.4-1.3 0-1.3-1.4 0-1 0.5-3.6l1.3-7.5q0-0.9 0.4-1.6 0.4-0.7 1.1-1.2 0.7-0.4 2.3-1 13-4.3 26.7-4.3 12.7 0 19.4 5.5 6.7 5.5 6.7 16.2 0 3.5-0.5 6.7l-9 50.7q-0.3 1.6-0.7 2.2-0.5 0.6-1.9 1.1-5.4 1.4-8.6 2-3.3 0.7-8.3 1.2-5 0.5-11.6 0.5-31.1 0-31.1-20.8 0-3 0.7-6.5 1.1-6.6 3.6-11.1 2.6-4.5 6.9-7.3 4.4-2.8 11.2-4.2 6.9-1.3 16.5-1.3h11.5q1.6-8.8 1.6-10.4 0-4.7-2.7-6.4-2.8-1.7-8.8-1.7zm3.6 53.6l4-22h-11q-8.8 0-12.3 2.4-3.6 2.4-4.6 8.8-0.3 1.9-0.3 3.7 0 4.3 3.1 6.4 3.2 2 10.5 2 6.5 0 10.6-1.3z"/><path fill-rule="evenodd" d="m450.9 198.6q-7.1 0-14.9-1.7-7.9-1.8-13.3-4.4-2.4-1.3-2.4-3v-0.9l1.3-7q0.4-2.5 2.2-2.5 0.9 0 1.3 0.1 5.7 1.5 12.8 2.6 7.2 1.1 14 1.1 8.5 0 12.1-2.9 3.7-2.9 4.6-10.4l0.1-1.2q-7.7 1.5-13.5 1.5-13.8 0-22.3-6.9-8.5-6.9-8.5-21.3 0-5 0.8-9l1.9-11.5q2.4-13.8 7.6-21.9 5.3-8.1 13.8-11.8 8.5-3.6 20.8-3.6 7.1 0 15.1 1.1 8.1 1.1 14.1 2.8 1.9 0.5 2.7 1 0.8 0.6 0.8 1.9 0 0.3-0.1 0.5 0 0.3-0.1 0.6l-13.6 76.8q-2 11.1-6 17.5-4 6.5-11.5 9.5-7.6 3-19.8 3zm29.6-97.3q-2.6-0.6-6.2-1-3.5-0.3-7.8-0.3-6 0-10 2.3-3.9 2.2-6.2 6.9-2.4 4.6-3.6 12.1l-2 11.4q-1 6.2-1 9.3 0 6.1 3 9.1 3.1 2.9 10.3 2.9 5.7 0 14.4-1.2z"/><path fill-rule="evenodd" d="m580.5 113.2q0 3.6-0.8 7.8l-2.2 11.9q-6.9 37.1-42 37.1-9.5 0-16.3-4.1-6.8-4-10.1-10.8-3.3-6.8-3.3-15 0-4 0.5-7.2l2.3-12q3.4-18.4 14-27.7 10.6-9.3 28.1-9.3 10.1 0 16.8 3.9 6.8 3.9 9.9 10.6 3 6.7 3.1 14.8zm-19.8 1.2q0-6.8-3.2-10.2-3.3-3.4-9.8-3.4-7.3 0-12.4 4.8-5.1 4.7-7.1 15.4l-2.2 11.9q-0.6 3.2-0.6 6.7 0 13.5 13.1 13.5 15.7 0 19.4-20.2l2.2-12q0.6-3 0.6-6.5z"/><path  d="m668.9 61.2q0 0.3-0.1 0.5 0 0.3-0.1 0.6l-1.7 9.5q-0.2 1.2-1.3 2.1-1.1 0.9-2.2 0.9h-30.4q-6.5 0-9.6 2.8-3 2.7-4.3 10l-2.9 16.1h40.4q1 0 1.8 0.8 0.7 0.8 0.7 1.7v0.3 0.2l-2 10.6q-0.2 1.3-1.3 2.2-1.1 0.8-2.2 0.8h-40.3l-3.3 19.3q-0.4 2.8-0.4 4.8-0.1 4.4 2.2 6.2 2.3 1.8 7.7 1.8h30.4q2.3 0 2.3 2.3v0.5 0.1l-1.6 9.6q-0.4 2.6-3.5 3.1-1.7 0.2-4.2 0.6-2.5 0.4-7.1 0.8-4.7 0.3-7.7 0.5-3.1 0.1-9.7 0.1-13.3 0-21.4-5.7-8.1-5.7-8.1-17.8 0-3.7 0.5-6.9l9.1-52q1.8-9.7 5.3-15.8 3.6-6.2 8.6-9.3 4.9-3.2 11.1-4.3 6.1-1.1 14.8-1.1 11.8 0 17.3 0.6 5.4 0.5 10.6 1.5 2.6 0.4 2.6 2z"/><path  d="m729.1 57.1v0.3l-1.5 8.8q-0.2 1.1-1 1.8-0.9 0.7-1.7 0.7h-6.6q-3.9 0-5.8 0.7-1.9 0.7-3 2.6-1.1 2-1.7 5.7l-1.3 7.2h14.2q2.6 0 2.6 2.6v0.4l-1.6 9q-0.2 1.2-1.2 2-1 0.8-2.3 0.8h-14.3l-12.3 70q-1.8 10-5.7 15.2-4 5.3-9.8 7-5.7 1.6-14.5 1.7-3.1-0.1-8.7-1.2-0.8-0.2-1.5-0.7-0.7-0.5-0.7-1.4v-0.3l1.4-8.8q0.5-2.5 2.7-2.5h6.7q5.4 0 7.5-1.8 2-1.8 3-7.2l12.3-70-13-2.1q-2.3-0.4-2.3-2.4v-0.4l1.1-6.9q0.3-1.3 1.2-2.1 1-0.9 2.3-0.9h13.2l1.4-7.2q1.4-7.9 4-12.7 2.7-4.8 6.3-7.1 3.7-2.4 8.3-3.2 4.7-0.9 11.3-0.9 3 0 8.7 1.2 0.9 0.1 1.6 0.7 0.7 0.5 0.7 1.4z"/><path fill-rule="evenodd" d="m748.8 170q-7.3 0-13-1.9-5.7-1.8-9.9-5.7-4.3-3.9-6.4-9.4-2.2-5.6-2.2-12.9 0-5 0.7-8.9l1.7-9.2q3.5-20.3 14.1-29.2 10.6-8.9 28.3-8.9 14.3 0 21.7 8.4 7.5 8.4 7.5 22 0 3.8-0.8 8.5l-1.2 7.1q-0.7 3.8-3.6 3.8h-48.5q-0.7 5.1-0.7 6.1 0 6.6 3.7 10 3.8 3.4 13.1 3.4 11.4 0 26.3-4.7 0.5-0.1 1.4-0.1 1.5 0 1.5 1.5 0 0.6-0.2 1l-1.7 9.6q-0.2 1.4-0.9 2.1-0.7 0.8-2.9 1.8-3.9 1.6-7.9 2.7-4 1.1-9.5 2-5.5 0.9-10.6 0.9zm23.1-55.9q0-6.5-3.3-9.9-3.3-3.4-9.5-3.4-15.9 0-19.4 18.9h31.6q0.6-3.4 0.6-5.6z"/><path  d="m825.6 170q-6.3 0-11.4-2-5.1-1.9-9.1-5.9-3.9-3.9-5.9-9.1-2-5.2-2-11.5 0-3.1 0.7-7.6l2.6-13.9q2.5-13.4 8.2-21.4 5.7-8 13.6-11.3 7.9-3.4 17.8-3.4 9.8 0 19 4.7 2.7 1.5 2.7 3 0 0.3-0.1 0.5 0 0.2-0.1 0.4l-1.8 8.9q-0.2 2.6-2.4 2.6-0.7 0-1.1-0.2-11.3-3.2-17-3.2-8-0.1-12.6 4.3-4.7 4.3-6.6 15.1l-2.6 13.9q-0.7 4.7-0.7 7.3 0 6.3 3.2 9.2 3.2 3 9.9 3 6.6 0 18.3-3.6 0.4-0.1 1.4-0.1 1.4 0 1.4 1.4 0 0.6-0.1 1.1l-1.8 10.1q-0.2 1.5-1.1 2.3-0.8 0.8-2.8 1.6-3.8 1.6-8.8 2.7-5 1.1-10.8 1.1z"/><path  d="m919.2 87.5v0.4l-1.5 8.8q-0.2 1.2-1.3 2.1-1.1 0.9-2.2 0.9h-13.4l-8.2 46.7q-0.7 3.6-0.7 5.2-0.1 1.9 1 2.5 1.1 0.6 4 0.6h7.9q2.7 0 2.7 1.8v0.4l-1.7 9.4q-0.4 2.3-3.3 2.7-6.4 1-10.2 1-10.2 0-15.2-3.8-5.1-3.9-5.1-12.5 0-2.8 0.8-7.3l8.2-46.7-13.7-2.1q-2.4-0.2-2.4-2.6v-0.4l1.2-6.7q0.2-1.3 1.1-2.1 1-0.9 2.3-0.9h14l2.2-12.2q0.5-2.5 3.5-3l14.2-2.4h0.6q2.1 0 2.1 1.9v0.4l-2.9 15.3h13.5q1.1 0 1.8 0.7 0.7 0.7 0.7 1.9z"/><path  d="m947.9 87.5v0.4l-13.6 77.8q-0.3 1.3-1.3 2.2-1.1 0.9-2.4 0.9h-13.6q-1 0-1.7-0.7-0.7-0.8-0.7-1.8v-0.6l13.7-77.8q0.2-1.3 1.2-2.1 1-0.9 2.2-0.9h13.7q2.5 0 2.5 2.6zm5.8-30.3v0.5l-2.4 13.1q-0.2 1.3-1.2 2.1-1 0.8-2.2 0.8h-14.4q-1.1 0-1.9-0.7-0.8-0.6-0.8-1.7v-0.5l2.4-13.1q0.2-1.2 1.3-2.1 1.1-0.9 2.2-0.9h14.5q2.5 0 2.5 2.5z"/><path  d="m1031.3 86.9q-0.1 0.9-0.3 1.4l-30.7 67.7q-3.4 7.6-9 10.8-5.5 3.2-12 3.2-14.7 0-16-14l-6.9-67.7v-0.3q0-1.2 0.9-2.1 0.8-1 1.9-1h14.3q2.3 0 2.5 3l3.3 62.3q0.2 3.8 2.3 3.8 1.8 0 3.4-3.8l25.3-62.3q1-3 3.5-3h15.5q1.9 0 2 2z"/><path fill-rule="evenodd" d="m1099.1 113.2q0 3.6-0.7 7.8l-2.3 11.9q-6.9 37.1-42 37.1-9.5 0-16.3-4.1-6.8-4-10.1-10.8-3.3-6.8-3.3-15 0-4 0.6-7.2l2.2-12q3.4-18.4 14-27.7 10.6-9.3 28.1-9.3 10.1 0 16.9 3.9 6.7 3.9 9.8 10.6 3.1 6.7 3.1 14.8zm-19.8 1.2q0-6.8-3.2-10.2-3.2-3.4-9.8-3.4-7.3 0-12.4 4.8-5.1 4.7-7 15.4l-2.3 11.9q-0.6 3.2-0.6 6.7 0 13.5 13.1 13.5 15.7 0 19.4-20.2l2.2-12q0.6-3 0.6-6.5z"/><path class="b" d="m134.5 45.2c-36-19.8-68-31.1-86.5-31.1-5.1 0-9.2 0.9-12 2.7-15.8 10-25.6 71.3-21.7 136.4 3 52 13.2 79.5 21.9 83.7 15.7 7.5 70.8-13.6 125.6-48 46-28.9 66.7-51.6 66.7-61.2 0-17.3-41.3-53.6-94-82.5z"/><path fill-rule="evenodd" class="c" d="m237 127.7c0 21.7-49.4 55.1-70.7 68.5-41.7 26.2-93.6 50.7-121.6 50.7-4.8 0-9-0.7-12.2-2.3-19.9-9.6-25.4-66.7-26.8-90.9-2.9-49.5 1.5-128.8 25.7-144.1 24.1-15.4 88.2 17.6 107.2 28.1 47.4 26 98.4 65.3 98.4 90zm-8.5 0c0-17.3-41.3-53.6-94-82.5-36-19.8-68.1-31.1-86.5-31.1-5.1 0-9.2 0.9-12 2.7-15.8 10-25.6 71.3-21.7 136.4 3 52 13.2 79.5 21.9 83.7 15.7 7.5 70.8-13.6 125.6-48 46-28.9 66.7-51.6 66.7-61.2z"/><path class="d" d="m149.7 82.5q-12.9-8-36.5-8-22.5 0-39.1 2.3-3.2 0.4-5 1.5-1.7 1.2-2.4 3.6l-3 15h42.9l2.3-13.8 27.9 34-38.9 33.5 2.5-15.6h-44.4l-13.1 64.7v0.1 0.5q0 1.3 0.9 2.1 0.9 0.7 2.2 0.7h19.8q1.5 0 2.9-0.9 1.3-1 1.6-2.5l9.1-38.8q1 0 3.2 0.2 2.2 0.1 4.5 0.2 2.4 0.1 5.1 0.2 2.7 0.1 4.6 0.1c10.9 0 20.6-1.6 29.3-3.4 26.7-5.4 36.5-32.3 36.6-52.8 0.1-10-4.3-17.6-13-22.9z"/></svg>